<?xml version="1.0" standalone="no"?>
<!DOCTYPE svg PUBLIC "-//W3C//DTD SVG 20010904//EN"
 "http://www.w3.org/TR/2001/REC-SVG-20010904/DTD/svg10.dtd">
<svg version="1.0" xmlns="http://www.w3.org/2000/svg"
 width="512.000000pt" height="512.000000pt" viewBox="0 0 512.000000 512.000000"
 preserveAspectRatio="xMidYMid meet">
<metadata>
Created by potrace 1.11, written by Peter Selinger 2001-2013
</metadata>
<g transform="translate(0.000000,512.000000) scale(0.100000,-0.100000)"
fill="#000000" stroke="none">
<path d="M2487 5106 c-21 -8 -46 -21 -55 -29 -9 -8 -157 -129 -329 -270 l-312
-257 -589 -2 -588 -3 -36 -24 c-19 -13 -46 -40 -59 -59 l-24 -36 -3 -472 -3
-473 -244 -201 -245 -202 0 -1442 0 -1442 26 -52 c28 -57 69 -96 129 -123 38
-18 138 -19 2405 -19 2267 0 2367 1 2405 19 60 27 101 66 129 123 l26 52 0
1442 0 1442 -245 202 -244 201 -3 473 -3 472 -27 41 c-16 24 -44 49 -70 62
-44 21 -54 21 -621 21 l-577 0 -322 266 c-178 146 -336 272 -352 281 -41 21
-124 26 -169 9z m-576 -1043 c15 -15 14 -80 -1 -98 -9 -11 -35 -15 -101 -15
l-89 0 0 -328 c0 -369 -1 -372 -66 -372 -20 0 -44 5 -55 10 -18 10 -19 25 -19
350 l0 340 -87 0 c-66 0 -91 4 -105 17 -24 22 -23 68 2 93 20 20 30 21 265 18
167 -2 248 -7 256 -15z m668 0 c16 -13 50 -111 131 -378 61 -198 112 -365 115
-372 2 -6 -5 -23 -17 -38 -17 -22 -27 -26 -61 -23 -46 3 -49 8 -77 106 l-21
72 -129 0 -129 0 -28 -87 c-26 -82 -30 -88 -57 -91 -44 -5 -76 6 -86 32 -12
34 209 753 240 778 29 23 91 23 119 1z m711 7 c10 -6 48 -65 84 -133 98 -184
80 -183 172 -17 44 79 86 147 95 153 34 21 102 -15 102 -54 0 -14 -43 -100
-96 -192 l-95 -166 100 -171 c109 -186 114 -206 58 -235 -58 -30 -69 -20 -160
145 -35 63 -69 123 -76 133 -11 17 -21 3 -89 -123 -43 -78 -88 -148 -102 -157
-22 -15 -27 -15 -58 0 -62 30 -58 48 49 231 53 91 96 170 96 177 0 6 -38 79
-85 161 -118 205 -120 214 -66 243 31 17 46 18 71 5z m770 -1150 c26 -26 26
-72 -1 -96 -21 -19 -60 -19 -1499 -19 -1439 0 -1478 0 -1499 19 -27 24 -27 70
-1 96 20 20 33 20 1500 20 1467 0 1480 0 1500 -20z m-198 -477 c18 -16 24 -68
10 -89 -22 -34 -40 -34 -1312 -34 -1272 0 -1290 0 -1312 34 -13 20 -8 69 9 88
15 17 69 18 1301 18 1182 0 1287 -1 1304 -17z"/>
<path d="M2468 3707 c-26 -89 -45 -163 -44 -165 2 -1 46 -1 98 0 l95 3 -46
157 c-25 86 -48 159 -51 162 -3 3 -26 -68 -52 -157z"/>
</g>
</svg>
