<?xml version="1.0" encoding="UTF-8"?>
<svg width="1024px" height="358px" viewBox="0 0 1024 358" version="1.1" xmlns="http://www.w3.org/2000/svg" xmlns:xlink="http://www.w3.org/1999/xlink">
    <defs>
        <linearGradient x1="-4.92094975%" y1="107.516819%" x2="130.480535%" y2="-17.4465277%" id="linearGradient-1">
            <stop stop-color="#852EF6" offset="0%"></stop>
            <stop stop-color="#00FFD4" offset="100%"></stop>
        </linearGradient>
        <rect id="path-2" x="0" y="2.72848411e-12" width="1026" height="358"></rect>
    </defs>
    <g id="Page-1" stroke="none" stroke-width="1" fill="none" fill-rule="evenodd">
        <g id="Landing-Page-New" transform="translate(0.000000, -4982.000000)">
            <g id="Footer" transform="translate(-12.000000, 4931.000000)">
                <g id="Waves" transform="translate(11.000000, 51.000000)">
                    <mask id="mask-3" fill="white">
                        <use xlink:href="#path-2"></use>
                    </mask>
                    <use id="Mask" fill="url(#linearGradient-1)" xlink:href="#path-2"></use>
                    <g opacity="0.400000006" mask="url(#mask-3)" id="Path-2" fill="#6482E6">
                        <g transform="translate(513.000000, 91.000000) scale(-1, -1) translate(-513.000000, -91.000000) translate(-880.000000, -29.000000)">
                            <path d="M0,119.2933 C0,119.2933 196.426191,-84.0801936 652.15389,40.2571558 C1107.88159,164.594505 1086.28197,148.208963 1285.66284,124.594505 C1485.04371,100.980047 1490.23027,72.8465125 1589.42962,72.8465125 C1688.62897,72.8465125 1782.64175,178.570409 1863.17984,158.329445 C1943.71792,138.088481 2034.07772,40.2571558 2198.10041,40.2571558 C2362.12309,40.2571558 2474,222.907758 2474,222.907758 L2276.67415,222.907758 L1302.35976,210.377638 L23.5721224,239.2933" opacity="0.431782156"></path>
                            <path d="M1030.09822,119.6998 C1030.09822,119.6998 1241.43495,-83.673694 1582.5,40.6636554 C1923.56505,165.001005 1843.06792,148.615463 1992.28388,125.001005 C2141.49984,101.386547 2153.99576,98.013053 2228.23621,98.013053 C2302.47666,98.013053 2364.22119,178.976908 2424.49562,158.735945 C2484.77005,138.494981 2552.39501,40.6636554 2675.14903,40.6636554 C2797.90304,40.6636554 2784.67207,135.603414 2784.67207,135.603414 L2733.95335,223.314258 L2004.7798,210.784137 L1047.73951,239.6998" opacity="0.315500453"></path>
                            <path d="M564.073993,130.026959 C564.073993,130.026959 905.765494,-17.1943905 1313.46588,96.4425287 C1721.16626,210.079448 1535.87706,156.45415 1714.24598,134.871944 C1892.6149,113.289739 1897.25487,87.5773663 1986,87.5773663 C2074.74513,87.5773663 2158.85028,184.2027 2230.90078,165.703667 C2302.95128,147.204633 2383.78842,57.7926386 2530.52542,57.7926386 C2677.26241,57.7926386 2661.44645,144.561914 2661.44645,144.561914 L2600.81859,224.724392 L1729.18328,213.27261 L585.161944,239.6998" opacity="0.574784873"></path>
                        </g>
                    </g>
                </g>
            </g>
        </g>
    </g>
</svg>